<?xml version="1.0" standalone="no"?>
<!DOCTYPE svg PUBLIC "-//W3C//DTD SVG 20010904//EN"
 "http://www.w3.org/TR/2001/REC-SVG-20010904/DTD/svg10.dtd">
<svg version="1.0" xmlns="http://www.w3.org/2000/svg"
 width="400.000000pt" height="400.000000pt" viewBox="0 0 400.000000 400.000000"
 preserveAspectRatio="xMidYMid meet">
<metadata>
Created by potrace 1.14, written by Peter Selinger 2001-2017
</metadata>
<g transform="translate(0.000000,400.000000) scale(0.100000,-0.100000)"
fill="#000000" stroke="none">
<path d="M1225 2813 c-187 -25 -373 -157 -462 -329 -144 -277 -148 -681 -10
-964 33 -66 60 -103 122 -166 129 -129 264 -184 460 -184 331 0 560 193 649
546 38 147 38 389 2 546 -72 309 -262 503 -537 547 -62 11 -163 12 -224 4z
m236 -329 c25 -12 50 -28 56 -36 9 -10 -44 -92 -228 -358 -131 -190 -242 -345
-246 -345 -4 0 -14 34 -21 75 -17 97 -10 332 12 414 32 117 99 215 170 253 68
36 183 35 257 -3z m189 -364 c14 -106 7 -248 -16 -349 -51 -225 -203 -340
-378 -287 -46 14 -116 54 -116 67 0 6 309 455 438 638 53 75 53 75 72 -69z"/>
<path d="M2066 2378 c4 -7 90 -134 191 -281 101 -147 183 -270 183 -273 0 -3
-90 -138 -200 -299 -110 -162 -203 -301 -206 -310 -6 -14 15 -15 192 -13 l199
3 107 190 c79 140 109 203 114 238 12 85 66 83 78 -3 5 -31 40 -103 115 -235
l108 -190 202 -3 c137 -2 200 1 196 8 -3 6 -99 146 -211 311 l-206 301 38 56
c20 32 106 158 191 280 84 123 153 226 153 228 0 2 -90 4 -199 4 l-200 0 -64
-117 c-105 -192 -119 -220 -124 -263 -11 -80 -63 -78 -74 2 -5 30 -38 102 -97
209 l-90 164 -202 3 c-161 2 -200 0 -194 -10z"/>
</g>
</svg>
